<?xml version="1.0" standalone="no"?>
<!DOCTYPE svg PUBLIC "-//W3C//DTD SVG 20010904//EN"
 "http://www.w3.org/TR/2001/REC-SVG-20010904/DTD/svg10.dtd">
<svg version="1.0" xmlns="http://www.w3.org/2000/svg"
 width="665.000000pt" height="266.000000pt" viewBox="0 0 665.000000 266.000000"
 preserveAspectRatio="xMidYMid meet">

<g transform="translate(0.000000,266.000000) scale(0.100000,-0.100000)"
fill="#000000" stroke="none">
<path d="M1081 2548 c-12 -32 -6 -42 37 -63 33 -16 35 -18 17 -26 -11 -4 -31
-8 -45 -8 -14 -1 -43 -10 -65 -21 -31 -16 -50 -19 -87 -14 -41 6 -48 4 -48
-10 0 -10 -5 -14 -10 -11 -6 4 -40 -10 -77 -30 -49 -27 -75 -35 -102 -33 -25
2 -35 -1 -33 -10 1 -7 -9 -17 -23 -22 -15 -6 -49 -32 -78 -58 -29 -27 -60 -52
-69 -55 -10 -4 -15 -12 -12 -21 3 -9 -3 -17 -16 -21 -11 -4 -31 -23 -44 -43
-13 -20 -36 -50 -52 -67 -16 -16 -27 -35 -26 -41 6 -28 -83 -174 -107 -174 -8
0 -11 -6 -7 -16 4 -9 2 -22 -3 -28 -4 -6 -11 -24 -14 -41 -10 -50 -24 -109
-32 -130 -6 -16 -5 -18 5 -8 12 11 24 55 37 129 7 43 58 104 87 104 19 0 22
-4 18 -30 -2 -16 -10 -35 -18 -41 -8 -6 -14 -26 -14 -43 0 -42 -89 -141 -119
-131 -21 6 -40 -13 -24 -24 14 -9 -6 -192 -23 -212 -16 -18 -19 -39 -5 -39 7
0 21 -109 20 -157 -2 -105 6 -253 13 -253 4 0 12 -19 19 -42 6 -24 15 -53 19
-64 5 -14 4 -26 -3 -33 -8 -8 -8 -14 -2 -19 13 -9 45 -70 45 -86 0 -8 9 -25
21 -40 14 -17 18 -33 14 -47 -5 -16 -3 -20 6 -17 14 5 49 -42 49 -66 0 -7 7
-19 15 -26 9 -8 13 -21 9 -36 -6 -24 9 -34 22 -13 8 13 124 -104 124 -126 0
-15 30 -22 30 -7 0 4 4 13 9 21 8 12 15 9 41 -12 17 -15 38 -27 46 -27 8 0 29
-7 47 -16 40 -21 127 -27 127 -9 0 7 -11 16 -25 19 -14 4 -36 24 -50 45 -14
21 -38 44 -53 51 l-27 12 38 16 c44 20 54 57 12 46 -30 -7 -67 19 -58 42 3 8
0 14 -6 14 -6 0 -17 15 -25 33 -8 17 -22 43 -30 57 -8 14 -25 48 -37 75 -12
28 -33 67 -46 87 -13 21 -23 44 -23 52 0 8 -4 25 -9 38 -5 13 -9 28 -11 33 -1
6 -7 17 -14 25 -11 13 -19 49 -43 205 -9 59 -14 159 -7 174 3 9 8 50 10 91 7
130 27 246 45 265 5 5 9 19 9 31 0 27 73 186 84 184 5 -1 14 7 20 18 6 11 22
39 36 63 14 24 32 44 40 44 8 0 16 10 18 23 2 13 29 44 64 73 34 28 67 57 75
64 7 7 30 19 50 25 48 16 96 41 106 58 4 6 24 12 43 12 19 0 51 7 70 15 20 8
40 12 46 9 5 -3 14 -1 21 4 7 5 24 12 39 16 15 3 32 15 38 26 6 11 17 20 25
20 27 0 56 38 49 65 -5 19 -2 25 11 25 13 0 16 -6 11 -25 -7 -26 -1 -33 68
-86 21 -16 47 -29 57 -29 10 0 21 -5 24 -11 4 -6 13 -8 21 -5 7 3 29 -1 48 -9
20 -8 51 -15 70 -15 19 0 39 -6 43 -12 10 -17 58 -42 106 -58 20 -6 43 -18 50
-25 8 -7 41 -36 75 -64 35 -29 62 -60 64 -73 2 -13 10 -23 18 -23 8 0 26 -20
40 -44 14 -24 30 -52 36 -63 6 -11 15 -19 20 -18 11 2 84 -157 84 -184 0 -12
4 -26 9 -31 18 -19 38 -136 45 -265 3 -41 7 -82 10 -90 6 -15 2 -117 -7 -175
-14 -96 -30 -173 -39 -195 -7 -14 -12 -27 -13 -30 -1 -3 -7 -18 -13 -33 -7
-16 -12 -35 -12 -43 0 -8 -10 -31 -23 -52 -13 -20 -34 -59 -46 -87 -12 -27
-29 -61 -37 -75 -8 -14 -22 -40 -30 -58 -8 -17 -19 -32 -25 -32 -6 0 -9 -6 -6
-14 9 -23 -28 -49 -58 -42 -42 11 -32 -26 13 -46 l37 -16 -27 -12 c-15 -7 -39
-30 -53 -51 -14 -21 -36 -41 -50 -45 -14 -3 -25 -12 -25 -19 0 -18 87 -12 127
9 18 9 39 16 47 16 8 0 29 12 46 27 26 21 33 24 41 12 5 -8 9 -17 9 -21 0 -15
30 -8 30 7 0 9 26 42 57 75 55 57 58 58 77 42 18 -16 19 -16 13 15 -4 21 -2
35 8 43 8 7 15 19 15 26 0 24 35 71 49 66 9 -3 11 1 6 17 -4 14 0 30 14 47 12
15 21 32 21 40 0 16 32 77 45 86 6 5 6 11 -2 19 -7 7 -8 19 -3 33 4 11 13 40
19 64 7 23 15 42 19 42 4 0 8 37 9 83 4 172 15 322 24 325 13 5 11 23 -5 41
-17 20 -37 203 -23 212 16 11 -3 30 -24 24 -23 -8 -79 46 -79 76 0 10 -5 19
-11 19 -5 0 -7 -6 -3 -12 5 -10 4 -10 -6 -1 -13 12 -22 53 -12 53 2 0 17 -14
33 -31 16 -17 29 -26 29 -21 0 6 -16 24 -36 40 -19 16 -36 36 -38 45 -1 8 -7
21 -13 28 -16 21 -13 52 3 38 8 -6 12 -15 11 -21 -1 -5 9 -16 23 -25 23 -14
24 -14 6 1 -11 9 -20 26 -21 38 -2 19 3 17 32 -17 18 -21 33 -46 33 -56 0 -17
-2 -17 -37 2 -29 16 -32 16 -13 2 45 -33 70 -66 70 -93 0 -14 7 -35 16 -46 15
-19 16 -19 9 1 -8 22 -23 84 -32 130 -3 17 -10 35 -14 41 -5 6 -7 19 -3 28 4
10 1 16 -7 16 -24 0 -113 146 -107 174 1 6 -10 25 -26 41 -16 17 -39 47 -52
67 -13 20 -33 39 -44 43 -13 4 -19 12 -16 21 3 9 -2 17 -12 21 -9 3 -40 28
-69 55 -29 26 -63 52 -78 58 -14 5 -24 15 -23 22 2 9 -8 12 -32 10 -25 -2 -55
7 -103 33 -38 19 -73 33 -78 29 -5 -3 -9 2 -9 12 0 14 -7 16 -48 10 -37 -5
-56 -2 -87 14 -22 11 -51 20 -65 21 -14 0 -34 4 -45 8 -18 7 -16 10 15 26 51
26 58 40 37 69 -12 16 -16 15 -68 -16 -31 -19 -74 -48 -95 -65 l-40 -31 -39
32 c-38 30 -141 96 -151 96 -3 0 -8 -10 -13 -22z m37 -16 c6 -18 -15 -14 -22
4 -4 10 -1 14 6 12 6 -2 14 -10 16 -16z m362 0 c0 -12 -19 -28 -55 -46 -71
-36 -94 -29 -29 9 27 15 53 34 57 42 11 19 27 16 27 -5z m-340 -17 c0 -8 -4
-15 -10 -15 -5 0 -7 7 -4 15 4 8 8 15 10 15 2 0 4 -7 4 -15z m95 -49 l30 -26
-32 11 c-17 6 -37 17 -44 25 -17 20 -34 17 -18 -3 11 -15 11 -16 -1 -6 -7 7
-15 22 -17 33 -3 19 -1 20 25 6 15 -8 41 -26 57 -40z m15 -35 c26 -12 24 -12
-42 5 -21 5 -21 4 2 -10 34 -20 11 -28 -54 -18 -50 7 -72 27 -39 35 30 7 106
0 133 -12z m217 5 c13 -12 -12 -24 -67 -30 -38 -5 -50 -3 -40 4 8 5 31 10 50
11 34 1 34 1 -9 10 -26 5 -51 5 -62 -1 -28 -16 -37 -11 -9 5 25 14 124 15 137
1z m-374 -20 c24 -19 21 -35 -9 -46 -38 -15 -81 -12 -117 7 l-32 17 42 7 c24
5 51 13 60 18 24 14 34 13 56 -3z m431 5 c4 -5 0 -12 -6 -14 -7 -3 16 -6 52
-6 59 -1 63 -2 48 -17 -31 -31 -158 -26 -158 6 0 7 6 7 20 0 12 -6 33 -9 48
-7 25 4 25 4 -5 6 -33 1 -49 14 -38 31 8 13 32 13 39 1z m-283 -52 c-12 -13
-21 -28 -21 -35 0 -21 -41 -64 -63 -64 -20 0 -19 1 6 28 15 15 27 32 27 38 0
5 -9 -2 -20 -16 -11 -14 -20 -20 -20 -14 0 13 35 46 42 39 2 -3 17 9 33 25 16
16 30 28 33 26 2 -3 -5 -15 -17 -27z m152 -31 c31 -21 42 -68 17 -68 -10 0
-23 7 -31 16 -7 8 -25 22 -41 30 -23 12 -28 21 -28 50 l0 36 29 -24 c17 -12
41 -31 54 -40z m-229 37 c-45 -14 -104 -43 -104 -51 0 -2 14 3 32 12 17 9 45
20 62 25 l30 9 -35 -36 c-27 -28 -39 -34 -59 -28 -14 3 -31 7 -38 7 -26 1 -5
23 48 50 29 15 65 27 79 26 21 -1 18 -3 -15 -14z m270 1 c12 4 16 2 12 -5 -4
-6 -1 -11 6 -12 41 -2 78 -21 78 -39 0 -4 -17 -10 -37 -13 -30 -5 -42 -2 -60
15 -30 28 -22 34 18 14 37 -19 42 -20 34 -6 -3 5 -32 17 -63 26 -31 9 -61 20
-66 25 -5 5 6 4 24 -1 19 -6 43 -7 54 -4z m-479 -10 c17 -13 14 -15 -37 -25
-31 -7 -64 -21 -73 -31 -20 -22 -65 -26 -96 -9 -18 9 -13 14 43 44 68 37 130
45 163 21z m828 -24 c47 -25 54 -32 41 -40 -11 -6 -26 -5 -43 4 -14 8 -37 14
-51 15 -23 0 -23 1 -5 9 16 7 12 9 -20 10 -43 2 -96 18 -62 19 10 1 16 4 14 9
-13 19 74 2 126 -26z m-532 -15 c-17 -17 -24 -1 -10 25 12 21 14 21 17 4 2
-10 -1 -23 -7 -29z m-228 6 c-7 -2 -19 -2 -25 0 -7 3 -2 5 12 5 14 0 19 -2 13
-5z m630 -9 c35 -5 53 -14 72 -36 14 -16 25 -33 25 -36 0 -12 -104 -6 -127 7
-30 15 -47 47 -30 55 6 4 2 4 -11 2 -12 -2 -20 0 -17 4 3 5 -1 11 -7 14 -7 3
1 4 17 1 17 -2 51 -7 78 -11z m-685 -8 c-8 -7 -24 -17 -37 -21 -34 -11 -19
-16 17 -6 39 12 42 -2 5 -26 -26 -17 -133 -26 -133 -11 0 3 11 20 25 37 25 28
46 36 108 40 24 1 26 -1 15 -13z m-234 -22 c12 -5 5 -17 -32 -55 -46 -48 -48
-49 -107 -49 l-59 0 39 41 c56 58 113 81 159 63z m811 -6 c14 -6 42 -26 61
-44 l34 -33 -37 5 c-52 7 -124 33 -147 53 -17 15 -17 16 15 22 19 4 37 7 41 8
4 0 19 -4 33 -11z m343 5 c-10 -2 -26 -2 -35 0 -10 3 -2 5 17 5 19 0 27 -2 18
-5z m-865 -35 c-15 -15 -35 -28 -44 -28 -10 0 -21 -4 -24 -10 -3 -5 -11 -10
-16 -10 -6 0 8 17 30 38 22 21 50 38 61 38 18 0 18 -2 -7 -28z m92 13 c-24
-22 -105 -55 -105 -42 0 19 66 61 95 61 29 0 29 0 10 -19z m-305 -6 c0 -8 -7
-15 -15 -15 -8 0 -15 -4 -15 -10 0 -5 5 -10 10 -10 18 0 10 -19 -15 -36 -13
-8 -45 -22 -71 -30 -45 -13 -46 -13 -32 4 9 9 23 32 32 50 9 17 23 32 30 32 8
0 27 7 42 15 35 18 34 18 34 0z m979 -6 c-22 -13 -31 -11 -17 5 7 8 17 12 22
9 4 -3 2 -9 -5 -14z m202 -25 l43 -44 -61 0 c-40 0 -64 5 -72 14 -11 13 -7 13
24 5 20 -6 41 -9 47 -7 6 2 -14 10 -45 17 -66 15 -74 27 -17 25 22 -1 40 3 40
8 0 6 -13 8 -29 6 -17 -2 -28 -1 -25 3 2 4 -13 10 -33 12 -23 2 -13 4 24 4 60
0 63 -1 104 -43z m-125 -16 c9 -18 23 -41 31 -50 14 -16 13 -16 -23 -6 -53 14
-90 34 -97 52 -7 18 21 29 49 20 16 -5 16 -4 4 5 -13 9 -13 11 2 11 10 0 25
-15 34 -32z m-962 1 c-2 -4 1 -9 7 -11 6 -2 1 -12 -11 -23 -21 -19 -21 -19
-14 1 5 14 -1 12 -26 -11 -25 -23 -30 -25 -22 -9 16 30 39 47 54 38 10 -6 11
-4 0 7 -10 11 -22 3 -69 -45 -32 -32 -59 -53 -61 -47 -2 7 14 29 37 50 23 21
41 42 41 47 0 5 -11 -4 -25 -21 -27 -33 -34 -27 -10 9 12 18 24 23 59 22 25 0
43 -3 40 -7z m875 -39 c35 -57 41 -81 14 -58 -10 8 -38 23 -63 32 -92 36 -108
76 -31 76 48 0 50 -1 80 -50z m-1141 -25 c-34 -29 -20 -42 22 -20 16 8 30 13
30 11 0 -18 -67 -77 -98 -87 -20 -6 -45 -18 -54 -27 -32 -28 -21 9 22 71 22
31 35 57 30 57 -5 0 -21 -18 -35 -40 -28 -44 -46 -56 -96 -65 -18 -3 -42 -13
-51 -22 -30 -27 -20 1 15 46 48 60 111 94 162 87 22 -3 47 -1 55 4 27 17 26
10 -2 -15z m1347 -18 c17 -17 14 -17 -20 3 -53 31 -67 45 -30 29 17 -7 39 -21
50 -32z m-148 20 c23 -13 95 -93 100 -111 2 -6 6 -27 9 -46 l6 -35 -20 30
c-10 17 -40 47 -65 68 -26 21 -45 43 -41 48 3 6 -2 21 -10 34 -18 27 -12 31
21 12z m279 -38 c7 -5 24 -28 40 -51 26 -37 27 -42 12 -51 -14 -9 -12 -13 16
-32 17 -11 31 -25 31 -30 0 -6 15 -32 34 -58 18 -27 31 -50 29 -52 -6 -7 -48
7 -44 14 2 3 -8 15 -22 25 -14 11 -22 13 -17 6 5 -9 4 -11 -4 -6 -6 4 -9 11
-6 16 3 5 1 11 -5 15 -5 3 -10 11 -10 18 0 8 3 8 12 -1 7 -7 16 -12 20 -12 5
0 -7 14 -27 31 -19 17 -32 35 -29 40 3 5 -1 9 -8 9 -11 0 -10 2 0 9 10 6 8 10
-10 15 -14 5 -18 9 -10 13 7 3 19 -1 28 -7 8 -7 17 -11 19 -8 10 9 -20 27 -55
33 -38 7 -85 33 -76 42 3 3 -2 12 -12 20 -11 9 -6 9 16 -2 19 -9 36 -14 40
-11 3 4 -13 14 -36 23 -23 9 -42 20 -42 24 0 9 99 -18 116 -32z m-164 6 c18 7
98 -67 98 -90 0 -16 -2 -17 -17 -3 -10 9 -35 21 -55 27 -31 10 -98 69 -98 87
0 2 13 -2 29 -11 17 -8 36 -13 43 -10z m-1207 -7 c-1 -10 -6 -23 -12 -29 -7
-7 -10 -1 -9 19 1 16 6 29 12 29 6 0 10 -9 9 -19z m-31 -22 c-11 -36 -27 -45
-20 -11 5 22 4 26 -4 15 -5 -8 -10 -25 -10 -37 0 -12 -5 -25 -10 -28 -11 -7
-4 37 11 66 12 24 41 20 33 -5z m-63 -53 c-12 -20 -14 -14 -5 12 4 9 9 14 11
11 3 -2 0 -13 -6 -23z m-141 -8 c0 -7 -8 -18 -17 -24 -26 -14 -7 -26 21 -13
24 10 24 10 15 -20 -10 -35 -34 -65 -59 -73 -20 -7 -44 -52 -29 -57 12 -4 -38
-118 -51 -118 -5 0 -25 -16 -44 -35 l-34 -36 2 40 c1 21 7 45 13 53 6 7 13 29
17 49 3 20 17 46 31 59 l25 23 0 -21 c0 -12 -4 -22 -10 -22 -5 0 -10 -5 -10
-11 0 -6 10 -9 23 -7 20 3 22 7 19 60 -4 59 10 96 52 146 22 25 36 28 36 7z
m105 -2 c-4 -10 -11 -34 -15 -53 -8 -35 -8 -35 -9 -5 -1 39 9 75 21 75 6 0 7
-8 3 -17z m1393 -7 c7 -7 16 -46 19 -87 6 -70 5 -73 -11 -59 -20 16 -35 48
-46 100 -4 19 -11 43 -15 54 -7 16 -5 17 16 11 13 -4 30 -13 37 -19z m89 2
c37 -41 51 -80 48 -141 -1 -40 2 -60 11 -64 7 -2 24 -23 39 -45 15 -22 29 -37
32 -34 4 3 -1 14 -9 23 -9 10 -24 36 -33 58 -10 22 -20 43 -22 48 -2 4 0 7 6
7 5 0 12 -9 16 -20 3 -11 11 -19 18 -17 6 1 16 -16 22 -38 6 -22 16 -49 22
-61 6 -11 11 -35 11 -52 l-1 -33 -32 36 c-18 19 -37 35 -43 35 -14 0 -66 114
-53 118 15 5 -9 50 -29 57 -25 8 -49 38 -59 72 l-9 30 37 -12 c24 -9 42 -23
53 -46 10 -19 18 -27 18 -19 0 20 -32 68 -59 86 -21 15 -28 34 -13 34 5 0 18
-10 29 -22z m-1668 -40 c-16 -29 -29 -60 -29 -69 0 -22 -50 -65 -83 -73 -16
-4 -27 -3 -25 1 37 85 124 193 155 193 6 0 -1 -23 -18 -52z m153 -20 c-2 -38
-7 -68 -10 -68 -8 0 -5 79 4 119 8 37 10 21 6 -51z m51 39 c3 -8 1 -20 -4 -28
-6 -10 -9 -7 -9 14 0 29 5 35 13 14z m-106 -129 c-2 -13 -4 -5 -4 17 -1 22 1
32 4 23 2 -10 2 -28 0 -40z m1583 -27 c0 -15 8 -43 18 -62 12 -23 17 -50 14
-78 l-4 -43 -17 29 c-34 57 -81 176 -81 205 l0 29 35 -27 c25 -18 35 -34 35
-53z m-1610 12 c-11 -17 -11 -17 -6 0 3 10 7 26 7 35 1 15 2 15 6 0 2 -10 -1
-25 -7 -35z m-23 -65 c-2 -18 -4 -4 -4 32 0 36 2 50 4 33 2 -18 2 -48 0 -65z
m32 35 c0 -5 -4 -17 -9 -28 -8 -18 -9 -17 -9 8 -1 15 4 27 9 27 6 0 10 -3 9
-7z m-49 -117 c-7 -7 -10 9 -9 45 l1 54 9 -45 c5 -28 5 -48 -1 -54z m-21 7
l-2 -58 -7 45 c-7 41 -4 70 6 70 2 0 3 -26 3 -57z m-26 -15 c2 -7 0 -24 -5
-37 -5 -14 -4 -38 1 -58 13 -45 0 -33 -16 15 -7 20 -10 26 -8 12 19 -93 17
-160 -4 -160 -16 0 -29 47 -22 81 l8 34 7 -40 c11 -60 17 -67 9 -10 -7 53 -11
155 -5 155 1 0 7 -10 13 -22 8 -20 9 -18 5 10 -5 31 8 46 17 20z m1780 -2 c12
-10 15 -21 11 -43 -3 -16 -1 -53 4 -83 7 -36 7 -61 -1 -77 -14 -31 -25 -29
-33 5 -3 15 -10 41 -14 57 -12 40 -8 155 5 155 5 0 18 -7 28 -14z m-1845 -124
c-14 -73 -64 -147 -80 -117 -13 22 0 149 17 172 13 16 13 16 8 -7 -6 -23 -5
-24 12 -10 16 14 17 12 14 -28 -3 -23 -1 -42 3 -42 5 0 8 20 8 44 0 57 9 85
21 64 5 -8 3 -43 -3 -76z m1928 48 c-5 23 -4 23 8 7 17 -22 30 -151 18 -173
-16 -28 -67 46 -80 117 -15 84 -7 99 30 57 28 -31 29 -32 24 -8z m-2027 -92
c-3 -73 -15 -102 -59 -143 l-33 -30 8 45 c3 25 7 64 8 88 2 36 8 48 37 72 19
16 36 30 38 30 2 0 2 -28 1 -62z m2108 -6 c1 -8 8 -21 16 -30 15 -18 32 -62
23 -62 -2 0 -14 16 -26 36 -12 19 -24 33 -27 30 -3 -2 11 -28 31 -58 35 -51
47 -86 25 -73 -5 4 -14 18 -20 32 -5 13 -13 22 -18 18 -14 -8 -24 13 -26 61
-2 23 -6 47 -9 53 -5 7 -1 8 11 4 17 -6 17 -5 1 14 -10 11 -18 24 -18 29 0 12
34 -38 37 -54z m31 13 c21 -46 9 -64 -16 -24 -8 12 -9 18 -3 14 15 -9 14 8 -1
23 -7 7 -8 12 -2 12 6 0 16 -11 22 -25z m-2032 -57 c5 -7 3 -8 -6 -3 -8 5 -11
3 -8 -6 3 -8 10 -13 15 -12 5 1 9 -6 9 -15 1 -9 4 -24 8 -33 5 -10 2 -16 -8
-16 -8 0 -13 4 -10 9 3 5 -2 20 -11 34 -9 14 -14 32 -11 40 7 17 13 18 22 2z
m1894 -53 c0 -27 -10 -60 -29 -94 l-29 -53 -4 68 c-4 55 -1 77 14 107 16 32
22 36 34 27 8 -7 14 -30 14 -55z m48 -46 c6 -44 6 -44 12 -11 7 43 22 45 32 4
6 -21 4 -48 -5 -78 l-13 -47 -32 48 c-26 40 -32 58 -32 104 0 50 1 54 16 40 8
-9 18 -36 22 -60z m-1988 13 c0 -38 -7 -59 -32 -97 l-32 -48 -13 47 c-14 47
-7 106 12 106 6 1 13 -14 16 -32 5 -27 7 -29 8 -8 1 14 4 36 8 50 l7 25 7 -30
7 -30 1 33 c2 51 11 37 11 -16z m50 -17 c4 0 12 -4 17 -9 5 -5 3 -6 -4 -2 -7
4 -13 2 -13 -3 0 -6 5 -11 10 -11 6 0 10 -17 10 -37 l0 -38 -30 54 c-32 59
-42 102 -14 66 8 -11 19 -20 24 -20z m-136 -110 c5 -25 1 -36 -25 -64 -40 -43
-50 -30 -45 55 3 63 7 75 35 108 15 17 16 16 22 -25 4 -24 9 -57 13 -74z
m2157 98 c13 -16 12 -17 -3 -4 -10 7 -18 15 -18 17 0 8 8 3 21 -13z m-111
-125 c-5 -24 -12 -54 -14 -68 -3 -14 -19 -41 -36 -60 -29 -33 -31 -33 -26 -10
3 14 8 57 10 95 3 69 8 89 28 132 11 22 11 21 29 -12 16 -29 17 -42 9 -77z
m132 68 c10 -19 8 -18 -16 3 -14 14 -26 29 -26 34 0 13 29 -12 42 -37z m-2054
-6 c-2 -7 -10 1 -17 16 -12 27 -11 28 4 12 10 -9 16 -21 13 -28z m-18 -6 c6
-15 14 -22 22 -18 7 4 8 3 4 -4 -4 -6 -2 -20 4 -31 7 -13 7 -22 0 -26 -7 -4
-7 -12 0 -25 5 -10 10 -25 10 -32 0 -16 -65 79 -74 110 -12 36 2 26 24 -19 12
-23 24 -39 26 -36 3 3 -4 20 -15 38 -19 32 -28 69 -16 69 3 0 10 -12 15 -26z
m2050 -9 c0 4 7 2 15 -5 8 -7 13 -16 10 -20 -3 -5 -1 -11 5 -15 5 -3 10 -18
10 -33 -1 -26 -1 -26 -15 -8 -8 11 -15 16 -15 12 0 -5 -7 -2 -17 5 -9 8 -18
12 -21 9 -3 -3 -6 5 -7 18 -1 17 2 21 14 17 13 -5 14 -4 4 6 -18 18 -16 34 2
19 8 -7 15 -9 15 -5z m-2087 -102 c1 -33 -3 -71 -10 -84 -6 -13 -14 -33 -18
-44 -5 -17 -9 -14 -21 20 -16 48 -18 131 -3 141 8 4 9 -1 4 -17 -7 -21 -6 -22
9 -7 9 9 16 29 16 44 0 56 21 7 23 -53z m2013 -1 c-2 -31 0 -39 7 -27 5 9 7
28 4 41 -3 16 0 23 7 21 17 -6 19 -91 2 -139 -12 -35 -16 -39 -21 -23 -4 11
-11 28 -16 38 -17 31 -22 110 -9 142 11 27 13 28 20 10 4 -11 7 -39 6 -63z
m-1963 -14 c13 -18 28 -46 31 -63 l8 -30 -26 28 c-31 33 -46 60 -46 81 0 23 6
20 33 -16z m-124 -26 c0 -20 3 -53 6 -73 6 -29 1 -44 -23 -82 -27 -42 -30 -45
-34 -25 -9 45 0 154 16 191 19 46 36 41 35 -11z m2167 13 c8 -20 12 -40 9 -45
-3 -5 -1 -19 5 -30 7 -13 7 -20 0 -20 -10 0 -14 18 -12 50 0 7 -6 26 -14 42
-15 29 -17 38 -8 38 3 0 12 -16 20 -35z m24 15 c0 -5 -2 -10 -4 -10 -3 0 -8 5
-11 10 -3 6 -1 10 4 10 6 0 11 -4 11 -10z m-36 -62 c-3 -11 1 -29 9 -41 18
-28 28 -78 20 -106 -5 -19 -9 -16 -35 26 -24 37 -29 54 -24 82 3 19 10 37 15
40 6 4 6 12 1 21 -15 24 -11 37 5 16 8 -11 12 -28 9 -38z m-2020 -35 c18 -20
30 -45 31 -67 2 -19 6 -40 10 -47 5 -8 4 -10 -3 -5 -16 9 -15 -7 0 -22 7 -7
10 -12 7 -12 -3 0 -16 12 -30 27 -21 23 -22 25 -4 19 18 -7 18 -6 -2 16 -14
15 -21 33 -19 51 2 16 -5 38 -15 51 -11 13 -19 28 -19 32 0 4 3 4 8 -1 4 -6
20 -24 36 -42z m1892 6 c-7 -19 -17 -56 -21 -84 -8 -57 -24 -92 -55 -120 l-21
-19 5 27 c3 15 9 39 12 55 4 15 8 43 11 62 4 39 36 95 61 109 23 13 24 9 8
-30z m31 -46 c-3 -32 -9 -67 -13 -78 -4 -12 -3 -17 2 -12 5 5 14 30 21 55 l12
47 -4 -45 c-3 -37 -2 -41 6 -21 15 37 18 21 6 -29 -22 -83 -46 -94 -64 -28 -9
33 -8 55 4 105 20 80 38 83 30 6z m-1968 -15 c1 -15 8 -31 16 -36 14 -7 14
-15 3 -55 -18 -71 -42 -62 -64 23 -9 31 -9 51 -1 70 10 24 11 23 21 -22 6 -25
15 -50 20 -55 5 -5 6 0 2 12 -12 32 -18 134 -7 110 5 -11 10 -32 10 -47z m-48
-178 c-6 -8 -16 -28 -22 -43 -18 -46 -36 -9 -46 95 -4 38 0 55 18 85 l23 37
19 -79 c15 -60 17 -83 8 -95z m2105 127 c4 -4 9 -31 10 -60 l3 -52 -14 40
c-18 48 -18 55 -4 35 9 -12 10 -12 5 3 -3 10 -6 24 -7 30 0 7 -4 3 -8 -7 -7
-19 -8 -19 -13 1 -5 20 12 26 28 10z m-5 -94 c9 -42 1 -43 -13 -2 -6 17 -14
26 -17 20 -4 -6 -7 9 -8 32 l-2 42 16 -30 c9 -16 20 -45 24 -62z m-1949 2 c11
-20 11 -20 -11 0 -13 11 -28 29 -33 40 -11 20 -11 20 11 0 13 -11 28 -29 33
-40z m34 -80 c-2 -11 5 -32 16 -47 27 -39 19 -35 -27 13 -22 22 -32 37 -23 34
12 -5 16 -2 14 11 -2 10 -9 20 -16 22 -8 3 -10 0 -5 -8 5 -9 4 -11 -4 -6 -6 4
-9 11 -6 16 3 5 -8 18 -25 30 -16 12 -30 29 -30 39 0 12 16 2 54 -34 37 -34
54 -57 52 -70z m1761 67 c-14 -15 -30 -46 -36 -69 -11 -41 -59 -103 -80 -103
-10 0 -5 25 9 45 4 6 10 26 14 45 4 25 21 48 59 81 53 48 79 48 34 1z m-1818
-80 c13 -46 14 -79 2 -87 -5 -3 -13 4 -16 16 -5 16 -9 18 -15 9 -14 -23 -61
37 -54 69 5 21 3 23 -6 11 -10 -13 -11 -12 -6 3 3 10 6 28 6 40 1 12 10 -3 20
-33 11 -30 20 -56 20 -57 0 -2 5 -3 11 -3 8 0 8 5 -1 15 -7 8 -14 36 -15 62
l-4 48 24 -28 c13 -15 29 -44 34 -65z m1836 -1 c-9 -18 -11 -31 -5 -31 5 0 10
1 10 3 0 16 39 107 40 92 0 -11 3 -29 6 -40 3 -11 -2 -29 -11 -40 -9 -11 -13
-14 -9 -6 4 9 3 12 -4 7 -6 -4 -9 -13 -6 -20 5 -14 -60 -59 -70 -49 -18 19 8
119 41 155 18 20 18 20 21 -10 2 -17 -4 -45 -13 -61z m88 69 c3 -11 1 -18 -4
-14 -5 3 -9 12 -9 20 0 20 7 17 13 -6z m43 -34 c7 -31 -4 -55 -17 -35 -12 19
-11 59 1 59 5 0 12 -11 16 -24z m-2076 -29 c0 -7 10 -28 23 -47 30 -46 33 -99
7 -147 -15 -28 -20 -32 -20 -17 0 12 -9 29 -20 39 -11 10 -20 26 -20 35 0 9
-7 31 -15 48 -15 29 -14 34 5 72 19 37 40 46 40 17z m2050 -17 c23 -45 25 -54
9 -44 -7 4 -9 0 -5 -14 4 -11 2 -23 -4 -27 -5 -3 -10 -16 -10 -29 0 -13 -9
-31 -20 -41 -11 -10 -20 -27 -20 -39 0 -15 -5 -11 -20 17 -19 35 -25 97 -12
121 3 5 13 -15 23 -45 10 -32 18 -45 18 -31 1 13 5 21 10 18 4 -3 3 19 -4 49
-7 30 -9 55 -4 55 5 0 9 11 9 25 0 35 6 31 30 -15z m-1845 -78 c-7 -8 -43 19
-60 44 -16 26 -15 25 23 -7 22 -18 39 -35 37 -37z m1804 -17 c1 -16 -1 -17 -9
-5 -5 8 -9 29 -9 45 1 29 1 29 9 5 4 -14 8 -34 9 -45z m-1859 30 c11 -13 10
-14 -4 -9 -9 3 -16 10 -16 15 0 13 6 11 20 -6z m1730 6 c0 -5 -7 -12 -16 -15
-14 -5 -15 -4 -4 9 14 17 20 19 20 6z m-1792 -23 c7 -7 12 -30 12 -52 0 -23 6
-53 14 -67 15 -29 11 -115 -7 -137 -10 -12 -23 3 -43 48 -3 8 -13 29 -21 46
-14 27 -14 33 1 62 9 17 16 49 16 72 0 41 7 49 28 28z m1859 -25 c-3 -10 -5
-4 -5 12 0 17 2 24 5 18 2 -7 2 -21 0 -30z m-1698 -29 c16 -35 0 -29 -44 17
l-40 41 37 -18 c20 -9 41 -27 47 -40z m1612 -10 c-28 -52 -26 -63 4 -30 22 24
25 25 25 8 0 -10 -12 -41 -26 -68 -44 -84 -56 -91 -72 -44 -17 46 25 166 65
189 27 15 28 -10 4 -55z m-1691 2 c0 -6 -7 -2 -15 8 -8 11 -15 15 -15 10 0 -6
5 -15 11 -21 7 -7 18 -33 26 -60 12 -45 13 -45 7 -8 -18 123 -7 136 25 30 16
-51 18 -71 10 -95 -17 -47 -28 -40 -74 45 -21 40 -25 57 -19 85 4 19 6 42 5
50 -1 10 6 6 19 -9 11 -13 20 -28 20 -35z m1636 2 c-13 -29 -29 -65 -34 -79
-9 -24 -82 -78 -82 -61 0 4 10 23 23 42 13 19 31 56 40 81 15 40 41 66 69 68
4 1 -3 -23 -16 -51z m133 2 c7 -28 17 -48 21 -45 15 9 22 -33 9 -57 -12 -22
-12 -22 -21 -3 -6 14 -7 10 -4 -17 3 -24 0 -41 -10 -49 -8 -6 -14 -19 -14 -27
0 -14 -2 -14 -14 -2 -16 18 -29 117 -16 125 5 3 13 -9 17 -26 6 -23 9 -6 8 60
0 50 2 91 5 91 4 0 12 -23 19 -50z m-1693 -32 c28 -30 17 -30 -18 0 -16 13
-24 32 -15 32 2 0 16 -14 33 -32z m27 -60 c33 -24 47 -38 47 -50 0 -13 -70 34
-81 53 -13 25 -5 24 34 -3z m1517 -86 c0 -12 -134 -82 -157 -82 -6 0 -16 7
-23 15 -10 12 -9 15 7 15 10 0 35 16 54 36 18 20 47 45 64 55 29 18 30 18 42
-4 7 -12 12 -28 13 -35z m-1625 21 c13 -16 25 -34 25 -41 0 -7 11 -17 25 -22
14 -5 25 -13 26 -17 0 -5 3 -17 5 -28 7 -31 7 -65 0 -72 -3 -4 -31 19 -61 51
-52 53 -55 60 -55 106 0 28 2 50 5 50 3 0 17 -12 30 -27z m1717 -25 c2 -20 1
-35 -3 -32 -4 2 -9 -1 -12 -8 -2 -7 -3 -4 -1 7 2 11 4 36 5 55 1 41 6 31 11
-22z m-1597 26 c20 -8 35 -17 32 -20 -6 -6 -77 22 -77 30 0 8 4 8 45 -10z
m-31 -13 c4 -5 24 -12 45 -16 22 -3 47 -15 57 -26 9 -10 26 -19 37 -19 16 0
17 -3 7 -15 -17 -21 -22 -20 -106 20 -43 21 -74 41 -74 50 0 16 25 21 34 6z
m1582 -106 c-8 -13 -28 -32 -44 -44 -29 -20 -30 -20 -35 -2 -3 11 1 31 9 46 7
14 9 23 4 20 -6 -3 -7 1 -4 10 4 9 9 14 11 11 3 -3 12 2 21 11 14 14 16 14 22
-3 5 -14 9 -9 16 21 l8 40 4 -43 c2 -27 -2 -52 -12 -67z m-1516 12 c0 -4 4 -6
9 -3 9 6 29 -12 30 -29 1 -5 7 -11 14 -11 6 -1 17 -2 23 -3 5 0 24 -21 42 -46
l32 -45 -24 0 c-14 0 -37 6 -53 14 -15 7 -41 20 -58 27 -33 16 -75 72 -75 101
0 14 19 0 69 -51 37 -39 74 -71 82 -70 8 0 3 7 -11 17 -29 19 -120 113 -120
125 0 4 9 2 20 -5 11 -7 20 -16 20 -21z m1408 3 c-23 -32 -28 -36 -28 -20 0
10 36 50 45 50 3 0 -4 -13 -17 -30z m-28 1 c0 -4 -11 -20 -25 -35 -27 -29 -22
-35 8 -8 19 16 20 16 8 -5 -6 -12 -19 -27 -29 -32 -9 -6 -12 -11 -6 -11 7 0
30 21 53 48 44 51 55 46 18 -9 -12 -18 -36 -40 -52 -48 -17 -7 -43 -20 -58
-27 -16 -8 -40 -14 -53 -14 l-24 0 30 42 c17 23 43 49 58 58 15 9 33 24 41 33
14 18 31 22 31 8z"/>
<path d="M1683 2353 c9 -2 25 -2 35 0 9 3 1 5 -18 5 -19 0 -27 -2 -17 -5z"/>
<path d="M2045 2090 c3 -5 11 -10 16 -10 6 0 7 5 4 10 -3 6 -11 10 -16 10 -6
0 -7 -4 -4 -10z"/>
<path d="M2150 1985 c0 -2 15 -12 33 -20 l32 -16 -25 20 c-24 20 -40 26 -40
16z"/>
<path d="M2346 1447 c3 -10 9 -15 12 -12 3 3 0 11 -7 18 -10 9 -11 8 -5 -6z"/>
<path d="M2370 1251 c0 -5 5 -13 10 -16 6 -3 10 -2 10 4 0 5 -4 13 -10 16 -5
3 -10 2 -10 -4z"/>
<path d="M2350 1080 c0 -17 17 -47 23 -40 2 3 -2 16 -10 30 -7 14 -13 18 -13
10z"/>
<path d="M350 1056 c0 -2 8 -10 18 -17 15 -13 16 -12 3 4 -13 16 -21 21 -21
13z"/>
<path d="M350 1026 c0 -2 8 -10 18 -17 15 -13 16 -12 3 4 -13 16 -21 21 -21
13z"/>
<path d="M341 835 c0 -5 6 -21 14 -35 8 -14 14 -20 14 -15 0 6 -6 21 -14 35
-8 14 -14 21 -14 15z"/>
<path d="M2261 804 c0 -11 3 -14 6 -6 3 7 2 16 -1 19 -3 4 -6 -2 -5 -13z"/>
<path d="M2308 773 c-3 -12 -3 -34 0 -50 l5 -28 8 28 c4 16 4 38 0 50 l-8 21
-5 -21z"/>
<path d="M410 621 c0 -6 4 -13 10 -16 6 -3 7 1 4 9 -7 18 -14 21 -14 7z"/>
<path d="M2200 609 c0 -13 5 -31 10 -39 7 -11 8 -5 4 20 -8 43 -14 51 -14 19z"/>
<path d="M1245 2175 l-1 -45 38 0 c39 0 68 21 68 49 0 27 -21 41 -64 41 l-41
0 0 -45z m70 5 c0 -16 -6 -26 -17 -28 -14 -3 -18 3 -18 28 0 25 4 31 18 28 11
-2 17 -12 17 -28z"/>
<path d="M1393 2182 c-1 -19 -7 -38 -14 -43 -11 -6 -11 -9 1 -13 45 -14 73
-16 86 -5 21 17 17 31 -5 19 -28 -14 -41 -12 -41 6 0 14 3 14 15 4 13 -10 15
-9 15 8 0 15 -5 20 -15 16 -8 -4 -15 -1 -15 5 0 6 9 11 20 11 11 0 20 -4 20
-10 0 -5 5 -10 10 -10 11 0 14 30 3 30 -5 0 -24 4 -44 9 -35 8 -35 8 -36 -27z"/>
<path d="M1062 2193 c-18 -3 -22 -9 -16 -21 4 -9 9 -30 12 -45 4 -26 7 -28 35
-23 39 8 57 23 57 50 0 41 -24 51 -88 39z m56 -37 c5 -26 -16 -45 -28 -26 -5
8 -10 23 -10 33 0 24 34 18 38 -7z"/>
<path d="M947 2143 c-4 -3 -7 -28 -7 -54 0 -40 3 -47 16 -42 8 3 13 12 10 19
-7 18 14 30 24 14 4 -7 16 -9 29 -5 26 8 27 22 2 30 -10 3 -26 14 -36 25 -19
21 -28 24 -38 13z"/>
<path d="M1578 2139 c-38 -22 -8 -89 40 -89 32 0 36 18 5 22 -20 2 -29 9 -31
26 -5 33 26 41 48 12 14 -19 18 -20 23 -7 4 10 -3 21 -18 31 -28 18 -43 19
-67 5z"/>
<path d="M1115 2081 c-256 -74 -467 -308 -550 -611 -33 -118 -44 -315 -25
-441 65 -451 405 -779 781 -756 319 20 596 278 689 643 65 252 39 507 -75 739
-109 224 -283 376 -491 429 -83 22 -250 20 -329 -3z m373 -24 c260 -92 457
-339 522 -655 11 -55 20 -137 20 -183 l0 -82 -63 6 c-91 8 -149 36 -185 90
-17 24 -42 51 -55 60 -16 10 -31 36 -42 72 -11 33 -34 74 -59 102 l-40 46 -32
-36 c-31 -37 -44 -39 -44 -5 0 17 -11 18 -130 18 -128 0 -130 0 -120 20 9 17
8 20 -8 20 -23 0 -42 19 -42 41 0 9 -9 19 -20 22 -11 3 -19 11 -18 19 2 8 -6
13 -22 13 -22 0 -25 4 -22 33 4 38 -3 40 -34 11 l-23 -22 -22 38 -22 38 -26
-32 c-20 -24 -29 -29 -38 -20 -17 17 -33 2 -33 -32 0 -26 -3 -29 -20 -24 -24
8 -26 -13 -9 -96 6 -30 12 -61 13 -70 1 -8 13 -31 26 -49 18 -25 25 -51 28
-97 l4 -64 -36 23 c-22 14 -39 34 -42 51 -4 15 -13 27 -20 27 -14 0 -19 -26
-15 -91 3 -45 -10 -55 -34 -29 -10 11 -26 20 -37 20 -19 0 -19 -12 1 -80 17
-57 8 -62 -97 -59 -54 2 -110 -1 -126 -5 l-29 -9 6 134 c12 274 103 497 271
664 98 97 192 152 331 191 81 23 253 13 343 -19z m-439 -447 c-6 -17 -8 -43
-4 -58 6 -26 6 -26 -9 -6 -8 12 -22 40 -30 64 -13 38 -13 45 1 67 l16 24 18
-30 c15 -25 16 -36 8 -61z m-57 0 c6 -19 18 -45 26 -57 15 -24 10 -30 -11 -13
-7 6 -24 19 -39 30 -22 17 -27 28 -25 59 1 34 3 37 19 27 10 -6 23 -27 30 -46z
m122 9 c0 -37 -6 -56 -22 -71 l-21 -22 -9 25 c-12 31 1 75 30 99 13 11 23 19
23 20 0 0 0 -23 -1 -51z m41 -19 c-3 -5 -10 -10 -16 -10 -5 0 -9 5 -9 10 0 6
7 10 16 10 8 0 12 -4 9 -10z m-200 -37 c11 -10 27 -27 35 -38 11 -16 11 -17 0
-7 -8 6 -23 12 -34 12 -26 0 -56 28 -56 52 0 21 16 15 55 -19z m238 -8 c-3
-14 -15 -27 -27 -31 -11 -4 -24 -11 -28 -17 -4 -6 -10 1 -13 16 -9 35 9 57 45
57 24 0 27 -3 23 -25z m-83 -35 c0 -5 -4 -10 -10 -10 -5 0 -10 5 -10 10 0 6 5
10 10 10 6 0 10 -4 10 -10z m125 -9 c0 -8 -12 -23 -28 -34 -24 -18 -29 -19
-42 -7 -16 16 -10 29 20 47 25 15 50 12 50 -6z m-266 -7 c6 -6 -1 -11 -26 -18
-19 -6 -23 -4 -23 14 0 18 4 20 23 14 12 -3 24 -8 26 -10z m118 -9 c1 -6 -9
-15 -23 -22 -21 -10 -24 -10 -14 2 7 8 7 15 1 19 -6 4 -15 -3 -21 -15 -8 -14
-15 -18 -22 -11 -12 12 -1 35 13 27 5 -4 9 -2 9 4 0 13 52 9 57 -4z m21 -19
c0 -16 -5 -23 -14 -19 -10 4 -11 9 -1 24 15 24 15 24 15 -5z m461 -38 c-50
-73 -59 -88 -59 -95 0 -11 49 50 50 62 0 6 11 23 24 39 l23 28 25 -33 c14 -19
33 -57 42 -86 12 -35 28 -60 51 -77 18 -14 43 -42 55 -61 30 -49 111 -85 191
-85 l59 0 0 -32 c0 -56 -10 -62 -87 -54 -37 4 -104 11 -148 15 -51 5 -96 16
-123 30 -38 19 -53 21 -110 15 -58 -6 -178 -42 -146 -43 6 -1 27 5 45 13 19 7
62 17 96 20 53 6 71 3 110 -15 44 -20 90 -27 286 -45 61 -6 68 -9 65 -27 -2
-16 -14 -23 -43 -30 -54 -11 -267 8 -329 29 -46 16 -54 16 -145 -1 -172 -31
-174 -34 -25 -32 129 2 144 0 164 -18 20 -18 36 -20 192 -20 l170 1 -6 -30
c-4 -17 -10 -32 -14 -36 -4 -3 -8 -16 -10 -30 -5 -45 -90 -203 -150 -279 -144
-179 -330 -275 -537 -274 -111 0 -193 21 -296 74 -143 75 -267 210 -349 380
-38 80 -90 255 -90 305 0 33 35 48 105 45 33 -2 79 -4 103 -5 35 -1 45 -6 56
-28 12 -23 12 -27 -4 -31 -9 -2 -20 -14 -23 -26 -6 -26 34 -51 83 -51 27 0 30
-2 24 -25 -5 -22 -1 -27 30 -40 20 -8 36 -22 36 -30 0 -13 -4 -14 -21 -4 -15
8 -24 8 -32 0 -7 -7 -14 -6 -21 4 -6 8 -30 16 -53 19 -40 5 -43 3 -43 -19 0
-24 -39 -45 -85 -45 -23 0 -62 -35 -48 -43 4 -2 24 -7 45 -11 20 -4 39 -13 42
-21 6 -18 49 -20 78 -4 26 14 37 3 13 -15 -17 -12 -17 -14 2 -33 27 -27 35
-51 20 -60 -12 -8 -57 -68 -57 -77 0 -6 120 1 171 9 31 5 39 3 58 -21 11 -14
19 -30 16 -34 -7 -11 -39 -5 -63 11 -13 10 -34 14 -53 11 l-32 -5 28 -15 c22
-11 30 -12 33 -3 3 9 11 6 26 -8 19 -17 25 -18 59 -8 20 7 37 19 38 27 1 8 2
24 3 34 2 32 21 28 22 -4 1 -19 -3 -27 -10 -23 -6 3 -3 -2 6 -12 15 -16 21
-17 43 -7 21 10 29 9 41 -3 9 -8 19 -15 24 -15 4 0 14 -19 22 -42 7 -23 20
-43 28 -46 11 -3 12 -1 2 5 -7 5 -14 18 -16 29 -7 30 -35 91 -36 75 0 -11 -5
-10 -19 5 -23 24 -17 39 28 69 19 14 32 25 28 25 -17 0 -77 -30 -76 -37 1 -4
-1 -16 -5 -25 -14 -31 -26 -9 -26 46 0 43 4 57 25 76 27 25 32 46 13 52 -8 3
-5 11 8 25 10 12 24 28 31 35 7 7 19 19 28 26 19 16 20 52 0 52 -20 0 -10 55
16 93 18 25 18 27 2 27 -10 0 -48 -21 -85 -46 -54 -38 -71 -56 -84 -91 -14
-36 -19 -41 -26 -28 -17 30 2 69 58 115 30 24 53 49 51 55 -2 5 7 18 21 29
l24 19 -23 18 c-13 10 -30 19 -36 19 -7 0 -13 5 -13 10 0 6 -11 10 -25 10 -14
0 -25 5 -25 11 0 7 -12 9 -35 5 -27 -5 -35 -4 -35 7 0 19 69 36 99 25 13 -4
27 -6 32 -2 5 3 9 -6 9 -20 0 -23 4 -26 34 -26 19 0 40 -2 48 -5 18 -7 56 21
44 32 -5 4 -11 2 -13 -4 -6 -16 -103 -18 -103 -2 0 6 8 22 19 35 18 23 19 23
32 4 15 -20 26 -23 72 -21 17 1 27 7 27 16 0 8 -4 15 -10 15 -16 0 -12 30 5
36 8 4 15 14 15 23 0 9 15 27 32 41 45 35 105 96 125 128 33 52 87 114 91 104
2 -6 -7 -26 -19 -44z m-304 31 c12 -18 -23 -47 -50 -41 -31 5 -32 15 -2 35 26
19 43 21 52 6z m-315 -19 c0 -11 -4 -20 -10 -20 -5 0 -10 9 -10 20 0 11 5 20
10 20 6 0 10 -9 10 -20z m470 -6 c-55 -15 -88 -20 -94 -14 -6 6 -19 10 -29 10
-16 0 -17 3 -7 15 10 12 35 15 114 14 l101 -1 -85 -24z m-431 2 c9 -10 8 -15
-2 -19 -8 -3 -13 3 -13 14 0 23 0 23 15 5z m71 -6 c0 -5 7 -10 15 -10 8 0 15
-7 15 -15 0 -8 -6 -12 -13 -9 -17 6 -40 44 -27 44 5 0 10 -4 10 -10z m393 -27
c-35 -21 -63 -41 -63 -46 0 -5 10 -3 23 5 65 41 97 59 97 53 0 -27 -131 -165
-156 -165 -12 0 -12 4 2 26 16 24 16 26 -5 40 -17 12 -19 19 -11 29 13 16 4
39 -11 30 -5 -4 -9 0 -9 7 0 9 30 22 83 35 115 29 120 28 50 -14z m-425 5 c-2
-13 -9 -24 -15 -24 -7 -1 -17 -2 -23 -3 -5 0 -7 -7 -4 -15 3 -8 1 -17 -5 -21
-7 -3 -11 2 -11 14 0 11 -4 23 -10 26 -5 3 -10 12 -10 18 0 7 7 4 14 -6 10
-12 16 -15 21 -7 4 6 13 9 20 6 8 -3 11 2 8 15 -3 11 0 19 7 19 6 0 10 -10 8
-22z m112 2 c0 -11 7 -20 15 -20 15 0 21 -31 8 -44 -5 -4 -8 -13 -8 -18 0 -6
-6 -13 -13 -16 -11 -3 -12 0 -3 17 7 12 9 26 6 31 -3 6 0 10 7 11 7 0 3 5 -9
11 -25 12 -38 48 -17 48 8 0 14 -9 14 -20z m30 0 c0 -5 -2 -10 -4 -10 -3 0 -8
5 -11 10 -3 6 -1 10 4 10 6 0 11 -4 11 -10z m127 2 c13 -8 8 -18 -24 -46 -19
-15 -25 -16 -38 -6 -21 18 -19 33 8 46 28 14 39 16 54 6z m-97 -22 c0 -5 -5
-10 -11 -10 -5 0 -7 5 -4 10 3 6 8 10 11 10 2 0 4 -4 4 -10z m-80 -31 c0 -10
-4 -19 -9 -19 -5 0 -8 11 -8 25 0 13 3 22 8 19 5 -3 9 -14 9 -25z m-70 17 c0
-3 -4 -8 -10 -11 -5 -3 -10 -1 -10 4 0 6 5 11 10 11 6 0 10 -2 10 -4z m40 -6
c0 -5 -5 -10 -11 -10 -5 0 -7 5 -4 10 3 6 8 10 11 10 2 0 4 -4 4 -10z m227 -8
c20 -12 -13 -52 -43 -52 -30 0 -30 7 -2 37 24 25 27 26 45 15z m-297 -10 c0
-4 -6 -14 -12 -21 -11 -11 -9 -11 10 -2 12 7 27 9 32 6 14 -9 12 -35 -2 -35
-7 0 -5 -5 5 -11 19 -11 23 -34 7 -44 -18 -11 -32 6 -18 23 10 12 10 14 1 8
-12 -6 -18 4 -14 26 0 4 -6 5 -14 2 -17 -7 -30 18 -21 41 6 16 26 21 26 7z
m180 -12 c0 -5 -7 -10 -15 -10 -8 0 -15 5 -15 10 0 6 7 10 15 10 8 0 15 -4 15
-10z m-90 -49 c5 -19 5 -33 -1 -37 -5 -3 -7 -9 -4 -14 3 -4 -4 -10 -15 -13
-28 -7 -26 19 3 27 20 6 20 7 5 17 -18 10 -24 40 -11 52 9 9 12 5 23 -32z m90
12 c0 -10 -51 -53 -62 -53 -7 0 -7 4 1 13 6 8 7 18 3 22 -4 5 1 5 10 2 10 -3
20 -2 23 3 4 6 1 10 -5 10 -6 0 -9 4 -5 10 6 9 35 3 35 -7z m29 -20 c10 -19 9
-22 -4 -17 -8 4 -15 15 -15 27 0 23 2 22 19 -10z m119 18 c11 -6 11 -10 0 -18
-16 -13 -100 -14 -92 -2 3 5 14 9 24 9 10 0 22 5 25 10 7 12 25 13 43 1z
m-334 -20 c8 -13 -3 -38 -18 -44 -12 -5 -14 8 -7 46 2 10 19 9 25 -2z m-87
-69 c7 -20 8 -42 4 -50 -6 -11 -14 1 -30 42 -11 31 -21 61 -21 67 0 20 35 -24
47 -59z m400 37 c8 -8 7 -16 -5 -30 -26 -30 -65 -21 -67 16 -1 24 52 34 72 14z
m-105 -5 c8 -7 -3 -44 -13 -44 -5 0 -6 7 -3 15 4 8 1 15 -5 15 -6 0 -11 5 -11
10 0 11 23 14 32 4z m-311 -117 c-5 -5 -12 -1 -16 12 -3 12 -10 19 -15 16 -5
-3 -12 0 -16 6 -4 7 -3 9 4 5 7 -4 10 7 7 36 l-3 43 24 -54 c15 -33 21 -58 15
-64z m39 87 c0 -8 -4 -12 -10 -9 -5 3 -10 13 -10 21 0 8 5 12 10 9 6 -3 10
-13 10 -21z m96 12 c18 -14 17 -14 -9 -12 -62 7 -89 -101 -62 -244 21 -110 22
-122 9 -127 -16 -6 -44 136 -44 228 0 80 20 156 39 145 5 -3 14 1 21 9 15 19
21 19 46 1z m102 -3 c-2 -9 -8 -18 -15 -20 -9 -3 -11 11 -4 35 1 1 6 2 12 2 6
0 9 -8 7 -17z m27 7 c-3 -5 -1 -10 5 -10 6 0 8 -5 4 -11 -4 -8 -9 -7 -15 2 -7
12 -3 29 7 29 3 0 2 -4 -1 -10z m-264 -122 c8 2 11 -23 14 -113 0 -16 7 -47
14 -68 15 -44 11 -53 -17 -38 -14 7 -18 17 -15 36 5 23 3 25 -33 25 -22 0 -48
7 -58 15 -11 8 -15 15 -8 15 6 0 9 7 5 17 -5 14 -1 15 28 10 19 -3 28 -3 21 0
-7 3 -23 26 -37 52 -23 46 -23 48 -5 59 16 10 21 8 29 -6 6 -9 11 -13 11 -9 0
4 -11 25 -25 45 -14 20 -25 32 -25 26 0 -5 5 -15 12 -22 14 -14 7 -24 -8 -14
-6 4 -14 25 -18 47 l-7 40 57 -60 c30 -33 60 -59 65 -57z m195 96 c-3 -9 -6
-20 -6 -25 0 -17 -18 -9 -23 11 -3 11 -1 18 4 14 5 -3 9 0 9 5 0 6 5 11 11 11
6 0 8 -7 5 -16z m181 -14 c13 0 23 -4 23 -9 0 -11 -39 -9 -58 3 -7 4 -12 12
-12 19 0 8 3 8 12 -1 7 -7 22 -12 35 -12z m-218 -19 c27 -37 27 -38 -10 -43
-24 -4 -34 0 -46 19 -34 51 20 75 56 24z m91 8 c0 8 3 12 6 8 10 -10 -6 -26
-21 -21 -8 4 -12 11 -9 16 4 6 10 5 15 -3 7 -12 9 -12 9 0z m117 -19 c13 0 23
-2 23 -4 0 -2 3 -11 6 -20 10 -25 -52 -22 -66 3 -15 28 -14 49 2 33 7 -7 22
-12 35 -12z m-269 -32 c12 -24 15 -47 13 -88 -2 -38 -20 -4 -22 40 -1 32 -2
33 -9 10 -6 -20 -7 -17 -7 18 1 47 8 53 25 20z m152 12 c0 -5 -4 -10 -10 -10
-5 0 -10 5 -10 10 0 6 5 10 10 10 6 0 10 -4 10 -10z m-70 -75 c0 -11 7 -14 25
-9 19 5 25 2 25 -11 0 -9 4 -13 10 -10 5 3 19 -1 31 -9 l21 -14 -21 -14 c-11
-7 -21 -20 -21 -28 -1 -18 -78 -86 -114 -99 -20 -8 -26 -7 -30 7 -23 74 19
200 67 202 4 0 7 -7 7 -15z m-86 -80 c-10 -39 -24 -19 -24 33 l1 47 15 -27 c8
-16 12 -38 8 -53z m642 0 c46 -19 252 -38 318 -30 41 6 49 5 39 -6 -9 -9 -57
-13 -165 -15 -148 -2 -155 -2 -197 23 -38 22 -51 24 -110 19 l-66 -5 45 13
c61 19 94 19 136 1z m-416 -93 c-6 -24 -22 -49 -38 -61 -23 -17 -25 -22 -13
-33 10 -9 12 -10 7 0 -9 15 14 25 45 20 20 -3 16 -9 -34 -60 -31 -32 -60 -58
-65 -58 -5 0 -16 -8 -23 -17 -13 -16 -12 -17 3 -5 10 8 18 9 22 3 4 -6 14 -7
24 -4 13 5 10 -1 -8 -23 -14 -16 -27 -31 -30 -34 -3 -3 -5 -11 -6 -17 -2 -29
-5 -33 -19 -33 -7 0 -19 -8 -24 -17 -8 -14 -10 -15 -11 -3 0 8 9 21 20 28 11
7 20 20 20 29 0 15 -2 14 -16 -3 -14 -18 -15 -17 -12 19 2 20 1 37 -4 37 -12
0 36 69 48 70 7 0 14 10 17 23 6 21 6 21 -8 3 -11 -15 -15 -16 -15 -5 0 15 27
59 43 70 5 3 1 9 -7 12 -18 7 -28 -11 -46 -80 -13 -52 -36 -72 -25 -22 17 81
46 128 103 169 31 22 58 38 60 36 2 -2 -2 -22 -8 -44z m-345 -64 c12 -15 20
-18 23 -10 5 16 24 15 48 -3 18 -14 17 -15 -11 -10 l-30 6 33 -15 c17 -8 32
-17 32 -19 0 -2 -28 -2 -62 -1 -41 2 -56 0 -43 -6 11 -4 34 -6 50 -3 23 4 27
2 15 -6 -13 -9 -12 -11 3 -11 10 0 16 -4 13 -8 -3 -5 5 -8 17 -8 13 1 22 -5
22 -14 0 -8 7 -21 15 -28 13 -12 12 -13 -4 -7 -20 6 -20 6 0 -16 l19 -22 -23
14 c-21 13 -25 12 -46 -13 -32 -41 -76 -35 -82 9 -1 7 2 15 7 18 9 6 1 65 -11
79 -5 4 -19 1 -31 -8 -43 -30 -89 -17 -89 25 0 5 24 10 53 11 l52 2 -55 4 -55
3 34 15 c23 9 31 19 27 29 -9 25 56 19 79 -7z m168 -36 c8 -74 -3 -238 -14
-220 -5 7 -9 36 -9 63 0 28 -9 75 -20 105 -22 61 -25 86 -10 95 6 3 8 -2 5
-12 -3 -10 0 -8 6 5 21 38 36 26 42 -36z m-327 -11 c-4 -5 0 -11 6 -14 24 -8
3 -15 -30 -10 -26 4 -30 8 -21 19 13 15 54 20 45 5z m144 -41 c0 -5 -5 -10
-11 -10 -5 0 -7 5 -4 10 3 6 8 10 11 10 2 0 4 -4 4 -10z m3 -40 c3 -11 1 -18
-4 -14 -5 3 -9 0 -9 -7 0 -10 -3 -10 -12 -1 -8 8 -8 15 2 27 16 19 17 19 23
-5z m140 -80 c6 -23 -2 -25 -28 -6 -12 8 -16 19 -12 31 6 13 10 15 21 6 8 -7
16 -21 19 -31z m-104 -14 c-12 -10 -60 -16 -54 -6 3 5 18 10 32 10 15 0 24 -2
22 -4z m54 -3 c-7 -2 -19 -2 -25 0 -7 3 -2 5 12 5 14 0 19 -2 13 -5z m-18 -20
c-27 -7 -43 -23 -24 -24 7 -1 1 -4 -16 -8 -16 -4 -43 -5 -59 -2 l-29 4 34 18
c19 10 52 18 74 17 22 0 31 -2 20 -5z m45 -17 c0 -2 -11 -6 -25 -8 -14 -3 -25
-1 -25 3 0 5 11 9 25 9 14 0 25 -2 25 -4z m44 -12 c6 -15 4 -15 -11 -3 -10 7
-20 15 -22 16 -2 2 3 3 11 3 9 0 19 -7 22 -16z m100 -25 c4 -26 3 -36 -7 -36
-7 0 -12 11 -11 26 1 14 3 32 3 40 1 22 8 9 15 -30z"/>
<path d="M1580 1688 c0 -121 1 -128 20 -128 10 0 28 -10 39 -21 l20 -22 101
58 c55 31 103 62 106 67 8 12 -34 -9 -134 -68 -41 -25 -76 -43 -78 -41 -2 2
35 41 81 87 47 47 85 89 85 95 0 5 -41 -31 -91 -80 -51 -50 -89 -83 -87 -75 3
8 31 58 61 110 31 52 54 96 51 99 -6 6 -3 10 -72 -109 -34 -58 -62 -98 -62
-90 0 8 14 63 30 123 16 59 25 107 22 107 -4 0 -22 -53 -39 -117 l-31 -118 -1
110 c-1 61 -6 117 -11 125 -7 10 -10 -26 -10 -112z"/>
<path d="M1500 1797 c0 -12 61 -231 66 -236 9 -9 3 24 -23 122 -22 86 -43 141
-43 114z"/>
<path d="M1420 1768 c0 -11 123 -219 128 -214 2 3 -19 44 -46 93 -52 89 -81
133 -82 121z"/>
<path d="M1435 1630 c49 -49 92 -90 95 -90 2 0 -36 41 -85 90 -49 50 -92 90
-95 90 -2 0 36 -40 85 -90z"/>
<path d="M1300 1646 c0 -3 49 -32 214 -124 5 -3 6 0 3 5 -7 11 -198 123 -210
123 -4 0 -7 -2 -7 -4z"/>
<path d="M1272 1565 c6 -6 214 -65 230 -65 27 0 -6 13 -103 40 -100 28 -138
36 -127 25z"/>
<path d="M1765 1536 c-60 -17 -103 -32 -94 -34 16 -3 228 53 237 63 11 11 -38
1 -143 -29z"/>
<path d="M1667 1468 c-4 -12 -5 -23 -4 -24 13 -12 219 -115 213 -106 -3 6 -51
34 -106 63 -55 29 -99 54 -97 55 2 2 52 -10 113 -26 111 -31 132 -35 121 -24
-3 3 -54 19 -113 35 -58 15 -109 31 -113 35 -3 3 49 4 117 2 67 -2 122 0 122
4 0 4 -56 8 -124 8 -119 0 -124 -1 -129 -22z"/>
<path d="M1600 1425 c0 -2 11 -21 25 -41 30 -44 33 -35 4 12 -19 31 -29 41
-29 29z"/>
<path d="M1571 1364 c-1 -24 69 -94 93 -94 8 0 29 -12 48 -27 28 -24 30 -24
13 -4 -11 13 -36 30 -55 39 -41 17 -86 59 -93 87 -4 19 -5 19 -6 -1z"/>
<path d="M1467 1275 c-32 -25 -54 -45 -49 -45 6 0 30 15 54 33 24 19 53 39 63
45 14 8 16 11 5 11 -8 0 -41 -20 -73 -44z"/>
<path d="M1505 1220 c-33 -17 -54 -30 -47 -30 7 0 35 11 62 25 27 14 54 25 59
25 19 0 83 -34 193 -102 25 -15 64 -29 93 -32 49 -5 49 -5 10 4 -22 6 -49 12
-61 15 -11 2 -40 20 -65 38 -24 19 -55 38 -69 42 -14 4 -32 14 -41 21 -30 27
-71 25 -134 -6z"/>
<path d="M1540 850 c-41 -5 -111 -15 -155 -23 l-80 -15 100 -3 c119 -4 272 -1
373 7 131 10 71 13 -93 5 -88 -5 -180 -5 -205 -2 l-45 7 45 7 c97 14 197 17
243 9 27 -6 45 -6 40 -1 -13 13 -139 18 -223 9z"/>
<path d="M1835 849 c-25 -4 -11 -5 40 -2 44 3 82 7 84 9 7 7 -81 2 -124 -7z"/>
<path d="M1378 734 c-4 -6 -5 -20 -2 -31 5 -16 17 -22 57 -27 79 -9 158 -7
202 5 22 7 63 15 90 19 42 6 44 8 15 9 -19 0 -60 -6 -90 -14 -59 -16 -138 -19
-213 -9 -40 6 -46 10 -49 33 -2 14 -6 21 -10 15z"/>
<path d="M1336 715 c-4 -11 -11 -13 -30 -5 -21 8 -24 7 -19 -7 5 -13 1 -15
-23 -9 -21 5 -25 4 -14 -4 19 -12 63 -13 55 0 -3 5 7 8 25 5 34 -4 44 4 25 22
-10 10 -14 9 -19 -2z"/>
<path d="M1803 713 c15 -2 37 -2 50 0 12 2 0 4 -28 4 -27 0 -38 -2 -22 -4z"/>
<path d="M1660 657 c0 -17 -60 -34 -78 -23 -15 9 -41 -27 -57 -80 -18 -58 -18
-64 -5 -64 6 0 10 15 10 33 0 22 3 28 9 18 6 -9 11 -10 15 -2 4 6 12 11 18 11
6 0 4 -8 -5 -18 -10 -10 -17 -23 -17 -28 0 -5 10 4 23 20 21 25 26 27 46 17
34 -19 47 -7 15 13 -22 15 -33 17 -56 8 -30 -11 -33 -7 -19 31 8 20 19 25 63
31 61 8 86 8 148 0 33 -4 50 -1 65 11 19 16 19 16 -4 5 -31 -16 -92 -4 -84 15
7 19 -11 19 -27 0 -10 -12 -15 -12 -36 2 -22 14 -24 14 -24 0z"/>
<path d="M1406 652 c-3 -6 -18 -9 -31 -6 -18 3 -25 0 -25 -12 0 -11 -5 -14
-17 -9 -27 10 -63 13 -63 5 0 -18 20 -19 135 -8 6 0 16 -1 24 -3 8 -2 17 4 19
15 3 12 0 16 -8 11 -7 -4 -16 -2 -20 5 -5 8 -10 9 -14 2z"/>
<path d="M1473 623 c9 -2 25 -2 35 0 9 3 1 5 -18 5 -19 0 -27 -2 -17 -5z"/>
<path d="M1475 566 c21 -52 19 -54 -15 -21 -30 29 -44 17 -16 -14 19 -21 33
-77 17 -67 -6 4 -11 14 -11 21 0 8 -6 12 -13 9 -7 -2 -18 9 -26 28 -8 21 -15
28 -18 19 -3 -7 -1 -16 4 -20 6 -3 16 -24 23 -46 7 -22 15 -34 17 -27 7 18 23
15 23 -5 0 -15 2 -16 10 -3 8 12 10 12 10 1 0 -8 2 -12 5 -10 2 3 0 20 -5 39
-11 40 -5 54 9 19 9 -21 10 -22 11 -4 0 11 3 29 6 41 4 14 -3 30 -21 50 l-26
29 16 -39z"/>
<path d="M1264 544 c-5 -19 -9 -22 -15 -12 -6 8 -9 9 -9 1 0 -6 -3 -18 -6 -27
-4 -11 -1 -16 10 -16 9 0 16 6 16 13 0 6 7 24 14 40 8 15 11 27 6 27 -5 0 -13
-12 -16 -26z"/>
<path d="M1370 497 c-19 -16 -22 -47 -4 -40 19 7 18 -17 -3 -46 -9 -14 -12
-21 -6 -18 22 14 52 76 41 83 -7 5 -8 2 -3 -6 5 -8 4 -11 -3 -7 -5 4 -8 16 -5
27 6 23 4 24 -17 7z"/>
<path d="M1570 491 c-12 -24 -13 -34 -1 -27 9 6 22 46 15 46 -2 0 -8 -9 -14
-19z"/>
<path d="M1280 484 c0 -8 5 -12 10 -9 12 8 24 -20 15 -35 -4 -6 -14 -2 -25 12
-14 16 -19 19 -20 8 0 -15 13 -40 23 -43 3 -1 14 6 24 16 11 9 23 14 28 10 12
-11 -6 18 -24 39 -19 22 -31 23 -31 2z"/>
<path d="M1057 458 c-7 -24 1 -48 16 -48 8 0 8 3 0 11 -6 6 -9 18 -6 26 5 11
11 8 30 -14 l23 -28 -17 32 c-22 40 -39 48 -46 21z"/>
<path d="M1520 465 c-19 -22 -8 -25 13 -3 9 10 13 18 8 18 -5 0 -14 -7 -21
-15z"/>
<path d="M1170 457 c0 -7 7 -22 16 -33 15 -18 15 -18 5 3 -16 31 -14 37 7 22
15 -13 16 -12 3 4 -16 20 -31 22 -31 4z"/>
<path d="M1140 430 c5 -18 12 -35 16 -39 9 -9 -7 53 -17 63 -5 5 -4 -5 1 -24z"/>
<path d="M1400 440 c0 -5 5 -10 11 -10 5 0 7 5 4 10 -3 6 -8 10 -11 10 -2 0
-4 -4 -4 -10z"/>
<path d="M901 1078 c-1 -21 -5 -22 -34 -7 -15 8 -12 1 11 -19 40 -38 42 -62 5
-63 l-28 -1 25 -7 c34 -10 41 5 31 65 -5 27 -9 41 -10 32z"/>
<path d="M1060 1035 c-6 -8 -10 -19 -8 -24 1 -6 8 1 15 14 13 28 11 31 -7 10z"/>
<path d="M1100 1015 c-11 -13 -10 -14 4 -9 9 3 16 10 16 15 0 13 -6 11 -20 -6z"/>
<path d="M1138 1013 c7 -3 16 -2 19 1 4 3 -2 6 -13 5 -11 0 -14 -3 -6 -6z"/>
<path d="M1057 981 c-18 -20 -40 -61 -33 -61 3 0 12 14 21 30 11 21 23 30 40
30 13 0 26 4 29 9 10 16 -43 9 -57 -8z"/>
<path d="M1020 970 c-6 -11 -8 -20 -6 -20 3 0 10 9 16 20 6 11 8 20 6 20 -3 0
-10 -9 -16 -20z"/>
<path d="M1125 980 c-3 -5 -1 -10 4 -10 6 0 11 5 11 10 0 6 -2 10 -4 10 -3 0
-8 -4 -11 -10z"/>
<path d="M1043 913 c-10 -10 -14 -15 -8 -11 6 4 22 12 36 17 15 6 18 10 8 10
-9 1 -25 -7 -36 -16z"/>
<path d="M1193 884 c-20 -31 -20 -33 -3 -24 17 9 37 47 28 55 -1 1 -13 -13
-25 -31z"/>
<path d="M1150 765 c-7 -9 -8 -15 -2 -15 5 0 12 7 16 15 3 8 4 15 2 15 -2 0
-9 -7 -16 -15z"/>
<path d="M786 764 c-3 -8 1 -14 9 -14 20 0 28 17 11 23 -8 3 -17 -1 -20 -9z"/>
<path d="M895 740 c-3 -6 1 -13 10 -16 21 -9 26 -2 10 13 -9 8 -16 9 -20 3z"/>
<path d="M920 650 c-9 -6 -10 -10 -3 -10 6 0 15 5 18 10 8 12 4 12 -15 0z"/>
<path d="M1010 785 c0 -2 9 -19 20 -37 23 -39 27 -30 5 12 -14 27 -25 38 -25
25z"/>
<path d="M878 573 c7 -3 16 -2 19 1 4 3 -2 6 -13 5 -11 0 -14 -3 -6 -6z"/>
<path d="M823 2069 c-18 -12 -33 -23 -33 -24 0 -2 11 -16 25 -31 13 -14 22
-30 19 -35 -8 -14 4 -11 32 7 39 26 48 51 29 80 -19 29 -30 30 -72 3z m54 -25
c3 -8 0 -21 -6 -27 -10 -9 -16 -8 -27 7 -8 11 -14 23 -14 28 0 15 41 8 47 -8z"/>
<path d="M1685 2056 c-20 -30 -7 -62 31 -76 57 -22 92 50 42 84 -32 23 -55 20
-73 -8z m65 -40 c-16 -21 -39 -20 -47 0 -4 11 1 22 12 31 16 11 21 11 34 -1
12 -12 12 -18 1 -30z"/>
<path d="M738 2000 c-14 -9 -12 -14 19 -45 28 -28 38 -33 49 -24 18 15 18 29
1 29 -18 0 -49 34 -40 43 10 10 -10 8 -29 -3z"/>
<path d="M1807 1978 c-2 -7 2 -26 10 -42 12 -23 12 -27 1 -24 -7 3 -14 14 -16
26 -4 23 -17 29 -27 12 -11 -18 26 -60 52 -60 26 0 28 14 7 65 -7 18 -6 18 9
6 9 -7 17 -20 17 -28 0 -8 5 -11 10 -8 15 9 12 23 -10 45 -23 23 -46 26 -53 8z"/>
<path d="M670 1925 c-38 -40 -8 -73 36 -40 25 19 35 19 28 0 -4 -8 -14 -15
-24 -15 -25 0 -34 -16 -14 -24 31 -12 74 44 54 69 -10 12 -16 12 -42 -1 -16
-9 -32 -13 -35 -10 -3 3 6 10 21 15 30 12 32 17 12 24 -8 3 -24 -5 -36 -18z"/>
<path d="M1902 1901 c-11 -6 -10 -10 5 -15 16 -7 16 -9 -7 -26 -13 -10 -28
-16 -32 -14 -12 8 -10 -20 3 -33 7 -7 18 -3 37 16 24 23 27 24 30 8 2 -10 9
-16 15 -14 20 6 17 22 -11 54 -18 23 -31 30 -40 24z"/>
<path d="M4440 1859 c-67 -14 -102 -93 -65 -146 9 -12 38 -35 65 -50 63 -36
79 -63 56 -98 -19 -30 -60 -33 -95 -9 -19 14 -25 14 -32 3 -5 -8 -8 -23 -7
-34 3 -17 12 -20 66 -23 60 -3 65 -1 98 32 27 27 34 42 34 74 0 45 -13 61 -95
114 -52 34 -65 59 -45 83 17 20 69 19 92 -2 22 -19 28 -15 31 23 2 25 -2 29
-33 34 -19 3 -51 3 -70 -1z"/>
<path d="M5213 1843 c-3 -10 -33 -83 -66 -163 -32 -80 -62 -151 -64 -157 -4
-9 6 -13 31 -13 31 0 36 3 36 23 0 12 5 39 11 60 l10 37 59 0 60 0 17 -60 c18
-59 18 -60 56 -60 20 0 37 2 37 5 0 3 -11 27 -24 53 -12 26 -43 102 -67 169
-39 108 -47 123 -67 123 -13 0 -25 -8 -29 -17z m51 -150 c7 -21 4 -23 -28 -23
-41 0 -45 11 -20 68 l16 37 13 -30 c7 -16 16 -40 19 -52z"/>
<path d="M585 1813 c-24 -37 -25 -38 -5 -43 11 -3 28 -12 39 -22 14 -12 22
-13 30 -5 15 15 14 27 -4 27 -8 0 -15 5 -15 10 0 6 11 10 24 10 13 0 30 7 37
17 13 15 11 16 -12 10 -21 -5 -28 -3 -32 13 -8 31 -34 24 -62 -17z m45 -2 c0
-12 -20 -25 -27 -18 -7 7 6 27 18 27 5 0 9 -4 9 -9z"/>
<path d="M2545 1828 c5 -13 11 -77 14 -144 4 -83 11 -126 20 -138 42 -51 153
-63 212 -23 47 31 58 72 58 210 l1 117 -27 0 -28 0 3 -124 c3 -118 3 -124 -21
-151 -20 -24 -32 -28 -70 -28 -80 0 -87 13 -87 170 l0 133 -41 0 c-38 0 -41
-2 -34 -22z"/>
<path d="M2890 1839 c0 -6 7 -18 16 -26 14 -14 16 -38 12 -160 l-3 -143 30 0
30 0 -3 92 c-2 51 -2 109 0 128 3 35 3 35 106 -97 142 -183 142 -183 142 42
l0 175 -28 0 -27 0 4 -117 c3 -117 3 -118 -16 -100 -11 10 -53 62 -94 117
l-74 100 -47 0 c-28 0 -48 -5 -48 -11z"/>
<path d="M3277 1843 c-12 -11 -8 -23 8 -23 13 0 15 -24 15 -155 l0 -155 36 0
c29 0 35 3 30 16 -3 9 -6 85 -6 170 l0 154 -38 0 c-21 0 -42 -3 -45 -7z"/>
<path d="M3405 1840 c-3 -5 3 -18 13 -28 10 -10 42 -84 72 -165 47 -130 56
-147 76 -147 17 0 25 9 34 35 6 19 38 97 71 172 32 76 59 139 59 141 0 1 -18
2 -41 2 -23 0 -38 -4 -34 -10 8 -12 -62 -231 -80 -248 -7 -8 -85 216 -85 245
0 15 -76 18 -85 3z"/>
<path d="M3770 1836 c0 -8 7 -17 16 -20 14 -5 16 -25 13 -156 l-4 -150 96 0
c96 0 97 0 103 26 9 33 3 39 -22 25 -12 -6 -41 -11 -66 -11 l-46 0 0 60 0 60
50 0 c43 0 50 3 50 20 0 17 -7 20 -51 20 l-50 0 3 53 3 52 34 -3 c19 -1 40 -7
48 -13 10 -9 15 -5 23 16 5 14 10 28 10 31 0 2 -47 4 -105 4 -83 0 -105 -3
-105 -14z"/>
<path d="M4024 1839 c-4 -7 1 -16 10 -21 14 -8 16 -30 16 -158 l0 -150 33 0
32 0 -3 80 c-6 113 3 111 92 -21 42 -63 45 -65 80 -61 42 5 44 12 15 38 -22
20 -99 128 -99 140 0 3 11 15 25 26 20 15 25 29 25 62 0 65 -18 76 -128 76
-57 0 -93 -4 -98 -11z m163 -45 c15 -24 15 -29 2 -53 -8 -14 -25 -28 -39 -30
-14 -1 -28 -8 -32 -15 -4 -6 -8 19 -8 57 l0 67 30 0 c21 0 35 -8 47 -26z"/>
<path d="M4607 1843 c-12 -11 -8 -23 8 -23 13 0 15 -24 15 -155 l0 -155 33 0
32 0 0 170 0 170 -41 0 c-22 0 -44 -3 -47 -7z"/>
<path d="M4736 1835 c-3 -9 0 -15 9 -15 23 0 28 -40 23 -180 l-4 -130 89 0
c102 0 149 18 192 74 59 77 37 214 -39 250 -48 22 -261 23 -270 1z m244 -53
c54 -55 49 -156 -11 -206 -23 -20 -42 -26 -78 -26 -26 0 -52 5 -59 12 -8 8
-12 52 -12 130 l0 118 66 0 c59 0 68 -3 94 -28z"/>
<path d="M5427 1843 c-12 -11 -8 -23 8 -23 13 0 15 -24 15 -155 l0 -155 85 0
c158 0 226 54 228 179 0 67 -21 114 -66 141 -27 17 -51 20 -148 20 -64 0 -119
-3 -122 -7z m224 -43 c30 -16 49 -64 49 -122 0 -60 -16 -90 -60 -113 -40 -20
-116 -20 -124 1 -3 9 -6 67 -6 130 l0 114 61 0 c33 0 69 -5 80 -10z"/>
<path d="M5907 1843 c-12 -11 -8 -23 8 -23 13 0 15 -24 15 -155 l0 -155 87 0
c133 0 196 39 223 139 19 71 -8 148 -63 181 -27 17 -51 20 -148 20 -64 0 -119
-3 -122 -7z m229 -51 c32 -25 44 -55 44 -107 0 -90 -50 -139 -138 -133 l-47 3
-3 128 -3 127 63 0 c45 0 69 -6 84 -18z"/>
<path d="M6270 1836 c0 -8 7 -16 15 -20 12 -4 15 -31 15 -156 l0 -151 98 3 97
3 3 28 c3 28 -6 35 -25 16 -5 -5 -32 -9 -59 -7 l-49 3 -3 58 -3 57 51 0 c43 0
50 3 50 20 0 17 -7 20 -50 20 l-50 0 0 55 c0 50 2 55 23 55 12 0 34 -6 49 -14
29 -15 48 -5 48 26 0 16 -11 18 -105 18 -83 0 -105 -3 -105 -14z"/>
<path d="M1913 1758 c2 -7 11 -13 20 -13 23 0 34 -15 18 -24 -10 -7 -11 -13
-1 -30 11 -21 12 -21 40 21 16 23 26 46 24 50 -3 4 -28 8 -55 8 -36 0 -49 -4
-46 -12z"/>
<path d="M517 1695 c-20 -43 -21 -47 -4 -43 18 3 57 -12 57 -23 0 -21 17 -7
34 28 16 34 16 37 0 52 -15 15 -16 15 -11 -1 7 -21 -1 -48 -15 -48 -5 0 -6 9
-3 20 7 22 -20 30 -28 8 -2 -7 -7 -10 -11 -7 -4 4 3 16 15 28 22 20 22 21 3
21 -13 0 -26 -12 -37 -35z"/>
<path d="M2058 1624 c-9 -9 -28 -16 -42 -16 -30 0 -30 -2 -15 -30 9 -16 13
-18 20 -7 4 7 11 11 14 7 4 -3 1 -15 -6 -26 -7 -11 -9 -27 -5 -38 8 -18 8 -18
16 1 4 12 16 20 31 20 29 0 36 28 17 74 -12 30 -14 31 -30 15z m22 -49 c0 -8
-4 -15 -10 -15 -5 0 -10 7 -10 15 0 8 5 15 10 15 6 0 10 -7 10 -15z"/>
<path d="M485 1612 c-3 -9 -2 -18 3 -20 5 -1 18 -9 28 -18 18 -14 17 -14 -16
-12 -29 2 -36 -1 -38 -17 -3 -18 2 -20 40 -17 62 6 66 16 25 61 -29 32 -37 36
-42 23z"/>
<path d="M447 1493 c-18 -18 -5 -38 25 -40 18 -2 34 -7 36 -13 6 -18 20 -11
24 13 4 20 0 23 -30 24 -19 1 -38 6 -42 12 -3 6 -9 8 -13 4z"/>
<path d="M2100 1489 c-8 -5 -27 -9 -42 -9 -21 0 -25 -4 -21 -21 4 -14 10 -18
22 -13 9 4 28 8 44 8 18 1 27 6 27 18 0 22 -12 29 -30 17z"/>
<path d="M426 1398 c-3 -15 0 -18 17 -13 l22 6 -21 -18 c-36 -31 -36 -49 0
-49 17 0 39 -4 49 -8 13 -6 17 -4 17 12 0 15 -5 18 -25 14 -35 -6 -31 11 5 25
42 16 38 27 -14 39 -40 9 -45 8 -50 -8z"/>
<path d="M2072 1408 c-23 -23 -12 -88 16 -88 13 0 12 3 -3 20 -15 16 -15 22
-5 35 7 8 21 15 33 15 17 0 19 -5 14 -34 -4 -28 -3 -34 9 -29 16 6 19 46 4 74
-12 21 -50 25 -68 7z"/>
<path d="M2783 1405 c-216 -58 -301 -304 -171 -493 69 -100 211 -143 371 -111
54 11 57 13 71 55 8 24 11 46 6 49 -5 3 -28 -4 -51 -16 -65 -33 -144 -36 -207
-9 -99 43 -149 135 -140 259 9 119 66 191 169 213 65 13 123 0 167 -37 17 -14
34 -25 40 -25 11 0 35 87 27 100 -18 29 -196 38 -282 15z"/>
<path d="M4958 1403 c-53 -3 -70 -8 -78 -22 -8 -16 -5 -20 15 -25 35 -9 38
-41 33 -317 l-4 -239 58 0 58 0 -7 43 c-5 23 -8 146 -8 272 l0 230 34 3 c80 8
121 -24 121 -94 0 -60 -40 -104 -94 -104 -30 0 -38 -5 -46 -26 -13 -33 -13
-34 8 -34 30 0 120 -113 187 -237 l28 -53 69 0 c51 0 68 3 68 14 0 8 -6 16
-14 19 -23 9 -206 261 -206 284 0 5 14 17 31 27 100 59 90 221 -16 252 -39 12
-100 14 -237 7z"/>
<path d="M3295 1321 c-52 -13 -111 -49 -140 -83 -113 -133 -80 -351 65 -424
34 -18 62 -24 117 -24 120 0 199 46 251 145 49 96 29 258 -41 323 -58 53 -177
83 -252 63z m139 -75 c50 -32 79 -90 84 -169 2 -40 -1 -90 -7 -113 -22 -82
-105 -135 -188 -119 -59 11 -118 78 -133 151 -13 63 -7 142 15 183 17 33 64
78 90 84 36 10 113 0 139 -17z"/>
<path d="M3773 1321 c-79 -20 -132 -94 -119 -166 9 -47 37 -78 103 -115 80
-44 113 -77 113 -113 0 -43 -16 -65 -56 -76 -40 -11 -88 3 -113 32 -21 26 -29
21 -41 -24 -15 -56 -6 -63 88 -67 65 -2 83 1 116 20 53 31 77 67 83 122 10 82
-5 99 -164 199 -48 30 -63 66 -43 103 23 43 113 40 146 -4 15 -20 27 -11 42
35 9 28 8 34 -6 42 -26 14 -113 20 -149 12z"/>
<path d="M4502 1308 c-7 -7 -12 -18 -12 -25 0 -7 -25 -75 -56 -151 -31 -75
-65 -159 -76 -186 -10 -27 -28 -66 -38 -87 -11 -21 -20 -43 -20 -49 0 -5 22
-10 50 -10 50 0 50 0 50 33 0 35 26 123 43 145 6 7 36 12 84 12 l74 0 19 -43
c11 -24 25 -67 31 -95 l11 -52 59 0 59 0 -28 58 c-30 59 -172 433 -172 451 0
15 -63 14 -78 -1z m53 -171 c36 -95 35 -97 -30 -97 -30 0 -55 3 -55 8 0 11 54
161 57 158 1 -1 14 -32 28 -69z"/>
<path d="M5760 1300 c-40 -13 -67 -32 -100 -68 -52 -55 -70 -104 -70 -183 2
-180 148 -286 344 -249 49 9 67 17 71 31 3 10 8 28 11 39 7 24 -21 27 -50 5
-13 -10 -44 -15 -91 -15 -87 0 -127 22 -165 90 -20 36 -25 59 -25 115 0 129
58 195 170 195 49 0 68 -5 99 -26 43 -30 54 -25 63 29 5 34 4 36 -33 46 -60
17 -162 13 -224 -9z"/>
<path d="M6250 1298 c-5 -13 -44 -108 -85 -213 -42 -104 -85 -206 -96 -227
-10 -20 -19 -42 -19 -48 0 -5 23 -10 53 -10 l52 0 1 48 c0 26 10 68 22 95 l21
47 74 0 c48 0 78 -4 84 -12 11 -16 39 -101 48 -145 7 -33 7 -33 66 -33 l59 0
-19 39 c-24 47 -95 227 -148 373 -38 107 -38 108 -71 108 -24 0 -35 -6 -42
-22z m58 -167 c12 -38 22 -74 22 -80 0 -12 -110 -16 -110 -3 0 13 54 152 60
152 3 0 15 -31 28 -69z"/>
<path d="M2070 1290 c0 -13 5 -18 15 -14 9 4 15 0 15 -10 0 -9 -7 -16 -15 -16
-9 0 -15 -9 -15 -23 l0 -24 45 21 c25 12 44 27 43 34 -2 7 -22 22 -45 32 -42
19 -43 19 -43 0z"/>
<path d="M3965 1269 c-9 -51 -2 -57 36 -35 16 10 55 20 85 23 l55 6 -3 -232
-3 -231 54 0 c47 0 52 2 46 18 -11 27 -18 280 -10 367 l7 78 50 -6 c28 -4 62
-14 75 -22 14 -9 26 -15 27 -13 5 6 26 71 26 79 0 5 -99 9 -219 9 l-219 0 -7
-41z"/>
<path d="M5416 1294 c-10 -26 -7 -34 14 -34 19 0 20 -7 20 -230 l0 -230 51 0
52 0 -7 31 c-3 17 -6 132 -6 255 l0 224 -59 0 c-44 0 -60 -4 -65 -16z"/>
<path d="M410 1269 c0 -15 6 -17 34 -12 25 4 35 1 39 -11 8 -20 -13 -30 -48
-24 -20 4 -25 1 -25 -17 0 -19 4 -21 33 -17 41 6 57 19 57 47 0 28 -16 41 -57
47 -27 4 -33 1 -33 -13z"/>
<path d="M803 346 c-22 -34 -22 -34 -2 -52 15 -13 22 -15 31 -6 9 9 7 12 -10
12 -27 0 -28 10 -2 43 21 27 25 37 13 37 -5 0 -18 -15 -30 -34z"/>
<path d="M1715 360 c-17 -18 -17 -21 -1 -45 27 -40 76 -28 76 20 0 44 -44 59
-75 25z m57 -15 c8 -19 8 -29 0 -37 -23 -23 -61 14 -48 47 9 23 35 18 48 -10z"/>
<path d="M870 301 c-14 -43 -8 -61 20 -61 20 0 66 55 52 64 -4 2 -14 -9 -21
-25 -13 -29 -34 -38 -46 -19 -3 5 1 23 10 39 8 16 11 32 6 35 -4 3 -14 -12
-21 -33z"/>
<path d="M1660 326 c0 -15 44 -75 51 -70 5 3 3 12 -5 20 -8 8 -18 23 -21 34
-5 17 -25 29 -25 16z"/>
<path d="M1596 284 c-20 -20 -20 -27 2 -54 20 -25 56 -21 67 7 5 15 3 14 -14
-1 -17 -16 -23 -17 -36 -6 -23 19 -15 55 12 54 12 0 20 3 17 8 -8 13 -31 9
-48 -8z"/>
<path d="M956 258 c-13 -19 -14 -25 -2 -43 7 -11 24 -21 37 -22 24 -2 24 -2
-1 5 -30 9 -38 43 -14 63 14 12 19 10 35 -10 14 -17 19 -19 19 -7 0 15 -28 36
-49 36 -5 0 -17 -10 -25 -22z"/>
<path d="M1543 264 c-8 -4 -8 -12 3 -32 8 -15 14 -33 14 -39 0 -7 5 -13 10
-13 13 0 13 4 -4 45 -8 18 -12 36 -8 39 6 7 2 7 -15 0z"/>
<path d="M1044 210 c-11 -38 -10 -39 17 -49 20 -7 31 -6 38 3 8 10 3 11 -21 8
-23 -4 -29 -1 -26 9 3 8 12 13 22 11 9 -2 16 4 16 12 0 10 -6 13 -15 10 -8 -4
-15 -2 -15 3 0 20 14 23 37 8 13 -9 23 -11 23 -5 0 9 -40 30 -59 30 -4 0 -12
-18 -17 -40z"/>
<path d="M1477 243 c-12 -3 -16 -10 -12 -21 4 -10 9 -29 12 -44 3 -18 10 -25
19 -21 11 4 12 9 4 18 -9 10 -6 16 9 25 25 13 27 35 5 44 -9 3 -16 5 -17 5 -1
-1 -10 -3 -20 -6z m28 -33 c-5 -8 -11 -8 -17 -2 -6 6 -7 16 -3 22 5 8 11 8 17
2 6 -6 7 -16 3 -22z"/>
<path d="M1140 207 c0 -16 4 -26 10 -22 6 4 10 -5 10 -19 0 -29 15 -35 24 -10
8 22 8 26 -4 19 -5 -3 -10 0 -10 7 0 8 -7 23 -15 34 -14 18 -14 18 -15 -9z"/>
<path d="M1390 215 c-15 -18 -6 -31 24 -37 11 -1 21 -9 24 -17 3 -10 -2 -13
-22 -9 -14 3 -26 1 -26 -4 0 -5 12 -8 27 -6 31 3 44 35 19 43 -9 3 -24 7 -33
10 -12 4 -13 9 -5 17 8 8 16 8 28 -3 15 -12 17 -12 12 1 -7 21 -32 24 -48 5z"/>
<path d="M1203 208 c-13 -21 -9 -78 5 -78 7 0 11 4 8 8 -3 4 -1 25 4 45 8 36
-1 49 -17 25z"/>
<path d="M1309 183 c-5 -16 -12 -34 -14 -40 -2 -7 0 -13 5 -13 6 0 10 7 10 15
0 8 7 15 15 15 9 0 18 -7 21 -15 4 -8 10 -15 15 -15 5 0 0 18 -11 40 -11 22
-23 40 -25 40 -3 0 -10 -12 -16 -27z"/>
<path d="M1130 155 c0 -8 4 -15 10 -15 5 0 7 7 4 15 -4 8 -8 15 -10 15 -2 0
-4 -7 -4 -15z"/>
</g>
</svg>
